<?xml version="1.0" encoding="UTF-8" standalone="no"?>
<svg
   xmlns:dc="http://purl.org/dc/elements/1.1/"
   xmlns:cc="http://creativecommons.org/ns#"
   xmlns:rdf="http://www.w3.org/1999/02/22-rdf-syntax-ns#"
   xmlns:svg="http://www.w3.org/2000/svg"
   xmlns="http://www.w3.org/2000/svg"
   xmlns:sodipodi="http://sodipodi.sourceforge.net/DTD/sodipodi-0.dtd"
   xmlns:inkscape="http://www.inkscape.org/namespaces/inkscape"
   version="1.1"
   width="360"
   height="120"
   id="svg3806"
   viewBox="0 0 360 120"
   sodipodi:docname="kirdeoptika-changed-360.svg"
   inkscape:version="0.92.2 (5c3e80d, 2017-08-06)">
  <metadata
     id="metadata3812">
    <rdf:RDF>
      <cc:Work
         rdf:about="">
        <dc:format>image/svg+xml</dc:format>
        <dc:type
           rdf:resource="http://purl.org/dc/dcmitype/StillImage" />
        <dc:title></dc:title>
      </cc:Work>
    </rdf:RDF>
  </metadata>
  <defs
     id="defs3810" />
  <sodipodi:namedview
     pagecolor="#ffffff"
     bordercolor="#666666"
     borderopacity="1"
     objecttolerance="10"
     gridtolerance="10"
     guidetolerance="10"
     inkscape:pageopacity="0"
     inkscape:pageshadow="2"
     inkscape:window-width="1920"
     inkscape:window-height="1027"
     id="namedview3808"
     showgrid="false"
     inkscape:zoom="2.2425738"
     inkscape:cx="157.91608"
     inkscape:cy="101.01097"
     inkscape:window-x="-8"
     inkscape:window-y="-8"
     inkscape:window-maximized="1"
     inkscape:current-layer="svg3806" />
  <path
     d="M 0,0 H 360 V 120 H 0 Z"
     style="fill:#ecf0f1;fill-opacity:1;fill-rule:evenodd;stroke-width:0.82875562"
     id="path3768"
     inkscape:connector-curvature="0" />
  <path
     d="M 9.5119596,10.067309 H 350.48796 v 3.022223 H 9.5119596 Z"
     style="fill:#ffffff;fill-rule:evenodd;stroke-width:0.82875562"
     id="path3770"
     inkscape:connector-curvature="0" />
  <g
     id="Layer1000"
     transform="matrix(0.82875561,0,0,0.82875561,-69.328556,-98.334919)">
    <path
       d="m 95.1312,247.6548 h 411.4313 v 3.6469 H 95.1312 Z"
       style="fill:#ffffff;fill-rule:evenodd"
       id="path3772"
       inkscape:connector-curvature="0" />
    <path
       d="m 95.1312,217.8678 h 411.4313 v 3.6468 H 95.1312 Z"
       style="fill:#ffffff;fill-rule:evenodd"
       id="path3774"
       inkscape:connector-curvature="0" />
  </g>
  <path
     d="M 9.5119596,25.222845 H 350.48796 v 3.022306 H 9.5119596 Z"
     style="fill:#ffffff;fill-rule:evenodd;stroke-width:0.82875562"
     id="path3777"
     inkscape:connector-curvature="0" />
  <path
     d="m 165.94107,45.752945 h -10.14363 v 8.93324 h 10.41248 c 3.08231,0 5.35766,-0.369791 6.80359,-1.09835 1.44601,-0.739913 2.16322,-1.894287 2.16322,-3.463535 0,-1.557895 -0.7061,-2.67887 -2.10703,-3.35124 -1.40118,-0.683723 -3.77747,-1.020115 -7.12863,-1.020115 z m -19.55871,29.388669 v -0.885526 c 0.67237,-0.134424 1.12072,-0.325038 1.34498,-0.593969 0.21291,-0.257909 0.32504,-0.706183 0.32504,-1.345153 V 42.670637 c 0,-0.616428 -0.10094,-1.053597 -0.31393,-1.31134 -0.20172,-0.269097 -0.66118,-0.482004 -1.35609,-0.661264 v -0.851795 h 21.73304 c 4.59561,0 8.15992,0.896631 10.70404,2.689892 2.54444,1.793345 3.81095,4.30406 3.81095,7.52104 0,3.284027 -1.21057,5.87306 -3.6428,7.778535 -2.43223,1.905392 -5.74982,2.858212 -9.95302,2.858212 h -13.23713 v 11.623049 c 0,0.66143 0.10077,1.109787 0.31368,1.345153 0.20172,0.246638 0.66143,0.437003 1.35634,0.593969 v 0.885526 z"
     style="fill:#2980b9;fill-opacity:1;fill-rule:evenodd;stroke-width:0.82875562"
     id="path3779"
     inkscape:connector-curvature="0" />
  <path
     d="m 192.25854,46.089337 c -0.68372,0 -1.13208,0.100777 -1.36753,0.313684 -0.22426,0.213073 -0.41463,0.638888 -0.57159,1.300401 h -0.88545 v -9.527209 h 0.8518 c 0.15697,0.650076 0.35868,1.09835 0.62762,1.322445 0.2579,0.23545 0.70618,0.34758 1.34515,0.34758 h 29.57903 c 0.68373,0 1.13208,-0.11213 1.36753,-0.325038 0.22401,-0.224261 0.41463,-0.672618 0.57159,-1.344987 h 0.88528 v 9.594255 h -0.88528 c -0.13467,-0.661181 -0.32503,-1.109538 -0.59413,-1.333799 -0.25774,-0.235201 -0.70602,-0.347332 -1.34499,-0.347332 h -10.96178 v 26.227629 c 0,0.683723 0.10077,1.13208 0.31368,1.36753 0.21307,0.224261 0.63889,0.414626 1.30015,0.571592 v 0.885526 H 201.5503 v -0.885526 c 0.65007,-0.17926 1.08708,-0.392333 1.28888,-0.63897 0.21307,-0.25766 0.33639,-0.694829 0.38114,-1.333634 V 46.089337 Z"
     style="fill:#2980b9;fill-opacity:1;fill-rule:evenodd;stroke-width:0.82875562"
     id="path3781"
     inkscape:connector-curvature="0" />
  <path
     d="m 243.07767,72.316966 c 0,0.683723 0.10077,1.13208 0.31368,1.36753 0.21316,0.224261 0.63897,0.42598 1.30015,0.60524 v 0.851878 h -11.04027 v -0.885526 c 0.68373,-0.156966 1.1209,-0.358685 1.3227,-0.60524 0.19061,-0.257743 0.29139,-0.694912 0.29139,-1.333882 V 42.670637 c 0,-0.683557 -0.10078,-1.143268 -0.31393,-1.401011 -0.21291,-0.246555 -0.63873,-0.437169 -1.30016,-0.571593 v -0.851795 h 11.04027 v 0.851795 c -0.63872,0.134424 -1.0647,0.325038 -1.2888,0.571593 -0.21307,0.257743 -0.32503,0.717454 -0.32503,1.401011 z"
     style="fill:#2980b9;fill-opacity:1;fill-rule:evenodd;stroke-width:0.82875562"
     id="path3783"
     inkscape:connector-curvature="0" />
  <path
     d="m 266.06627,72.316966 c 0,0.66143 0.10078,1.109787 0.31368,1.345153 0.20172,0.246638 0.66143,0.437003 1.35635,0.593969 v 0.885526 h -11.08511 v -0.885526 c 0.69491,-0.17926 1.15438,-0.392333 1.35609,-0.63897 0.21291,-0.25766 0.31394,-0.683558 0.31394,-1.300152 V 42.670637 c 0,-0.661264 -0.11213,-1.109621 -0.32504,-1.367281 -0.22426,-0.246637 -0.67262,-0.448356 -1.34499,-0.605323 v -0.851795 h 11.08511 v 0.851795 c -0.65008,0.156967 -1.09844,0.358686 -1.3227,0.605323 -0.23545,0.25766 -0.34733,0.706017 -0.34733,1.367281 v 12.082677 l 14.1786,-11.365306 0.10094,-0.0673 c 0.70602,-0.560321 1.0536,-1.053431 1.0536,-1.468306 0,-0.246555 -0.13467,-0.47065 -0.41488,-0.683723 -0.26884,-0.20172 -0.65007,-0.35852 -1.13183,-0.470651 v -0.851795 h 14.85114 v 0.851795 c -2.14084,1.244045 -4.04632,2.555551 -5.71634,3.911644 -0.0896,0.05619 -0.14578,0.101025 -0.16808,0.123319 l -11.65694,9.359137 13.93221,16.745421 c 0.58278,0.52684 1.23286,1.075891 1.95031,1.62519 0.70602,0.560487 1.51306,1.154374 2.40969,1.793344 v 0.885526 h -13.92086 v -0.885526 c 0.52684,-0.302578 0.89663,-0.582781 1.13208,-0.81823 0.2241,-0.246555 0.34758,-0.504298 0.34758,-0.795854 0,-0.235201 -0.21315,-0.593886 -0.62778,-1.075891 -0.17926,-0.201719 -0.29139,-0.34758 -0.35868,-0.42598 l -10.58081,-12.486115 -5.37995,4.180741 z"
     style="fill:#2980b9;fill-opacity:1;fill-rule:evenodd;stroke-width:0.82875562"
     id="path3785"
     inkscape:connector-curvature="0" />
  <path
     d="m 316.99753,48.846607 -6.00773,12.441279 h 11.72407 z m -20.38822,26.295007 v -0.885526 c 1.22167,-0.325038 2.21933,-1.333799 2.99264,-3.015013 0.056,-0.156966 0.12332,-0.302744 0.19045,-0.42598 l 13.10262,-27.427087 c 0.15697,-0.302496 0.24681,-0.515652 0.28029,-0.638888 0.0336,-0.123318 0.0561,-0.235283 0.0561,-0.347414 0,-0.392333 -0.16807,-0.728559 -0.48192,-1.008761 -0.31393,-0.291391 -0.78458,-0.515652 -1.38982,-0.694912 v -0.851795 h 11.94809 v 0.851795 c -0.66127,0.224096 -1.09844,0.437169 -1.3338,0.661264 -0.2241,0.212908 -0.33623,0.49311 -0.33623,0.818148 0,0.156966 0.0225,0.325038 0.0785,0.52684 0.0559,0.190614 0.13443,0.42598 0.24656,0.683723 l 13.52869,27.460734 c 0.59397,1.176833 1.12073,2.006418 1.59154,2.476985 0.47065,0.470899 1.03114,0.773395 1.69257,0.930361 v 0.885526 h -12.71054 v -0.885526 c 0.61643,-0.201802 1.04249,-0.414709 1.30015,-0.63897 0.24664,-0.235201 0.38123,-0.526757 0.38123,-0.907819 0,-0.145778 -0.0225,-0.31385 -0.0673,-0.49311 -0.0448,-0.168071 -0.13442,-0.414626 -0.2691,-0.717371 l -2.55546,-5.413597 h -16.19621 l -2.43223,5.413597 c -0.12332,0.302745 -0.21291,0.5493 -0.25774,0.717371 -0.0448,0.17926 -0.0673,0.347332 -0.0673,0.49311 0,0.381062 0.12332,0.672618 0.38098,0.907819 0.2468,0.224261 0.68381,0.437168 1.3004,0.63897 v 0.885526 z"
     style="fill:#2980b9;fill-opacity:1;fill-rule:evenodd;stroke-width:0.82875562"
     id="path3787"
     inkscape:connector-curvature="0" />
  <path
     d="m 75.106226,48.997109 c 0,6.837648 2.215512,12.312242 6.667339,16.444998 4.452158,4.153888 10.395413,6.220225 17.830014,6.220225 7.391751,0 13.335011,-2.087553 17.786831,-6.241442 4.47338,-4.153888 6.71011,-9.628482 6.71011,-16.423781 0,-6.816846 -2.23673,-12.312656 -6.73132,-16.466545 -4.49459,-4.153972 -10.45939,-6.241524 -17.893581,-6.241524 -7.306641,0 -13.207133,2.087552 -17.659291,6.26274 -4.473457,4.196653 -6.710102,9.671246 -6.710102,16.445329 z M 99.475619,14.743314 c 11.353781,0 20.662871,3.280629 27.948291,9.820422 7.26388,6.560927 10.90642,14.826024 10.90642,24.816838 0,9.9904 -3.66368,18.277045 -10.97032,24.880404 -7.32785,6.582472 -16.61572,9.884402 -27.884391,9.884402 -11.098364,0 -20.300618,-3.32306 -27.628475,-9.948051 -7.306641,-6.646454 -10.970818,-14.911551 -10.970818,-24.816755 0,-9.948051 3.621331,-18.191931 10.885291,-24.774406 7.242661,-6.582225 16.487761,-9.862854 27.714002,-9.862854 z"
     style="fill:#2980b9;fill-opacity:1;fill-rule:evenodd;stroke-width:0.82875562"
     id="path3789"
     inkscape:connector-curvature="0" />
  <path
     d="m 138.15464,97.11383 c 0,0.66359 -0.10128,1.11327 -0.31493,1.34938 -0.20238,0.24747 -0.66342,0.43866 -1.36073,0.59612 v 0.88835 h 11.12165 v -0.88835 c -0.69715,-0.17992 -1.15827,-0.39357 -1.36065,-0.64104 -0.21366,-0.25865 -0.31493,-0.68604 -0.31493,-1.30446 V 67.369958 c 0,-0.663502 0.11255,-1.113185 0.3262,-1.371839 0.22492,-0.247467 0.67469,-0.449849 1.34938,-0.60723 v -0.854695 h -11.12165 v 0.854695 c 0.65223,0.157381 1.10208,0.359763 1.32708,0.60723 0.23612,0.258654 0.34858,0.708337 0.34858,1.371839 V 79.49241 l -14.22543,-11.402761 -0.1011,-0.06746 c -0.70851,-0.562228 -1.05708,-1.057078 -1.05708,-1.473114 0,-0.2473 0.13492,-0.472307 0.41603,-0.685961 0.27001,-0.202382 0.65223,-0.359762 1.1359,-0.472225 v -0.854695 h -14.90012 v 0.854695 c 2.1478,1.248106 4.05958,2.563839 5.73507,3.92449 0.0901,0.05636 0.14619,0.101274 0.16865,0.123733 l 11.69524,9.389968 -13.97788,16.80037 c -0.58493,0.52858 -1.23708,1.07953 -1.95677,1.63066 -0.70851,0.56222 -1.51812,1.15818 -2.41773,1.79922 v 0.88835 h 13.96669 v -0.88835 c -0.52858,-0.30365 -0.89962,-0.58477 -1.13581,-0.82096 -0.22485,-0.24747 -0.34858,-0.50612 -0.34858,-0.79842 0,-0.23612 0.21365,-0.59604 0.62969,-1.07954 0.17992,-0.20238 0.29247,-0.34858 0.35993,-0.42731 l 10.61553,-12.5273 5.39777,4.19441 z"
     style="fill:#e74c3c;fill-opacity:1;fill-rule:evenodd;stroke-width:0.82875562"
     id="path3794"
     inkscape:connector-curvature="0" />
  <path
     d="m 98.687389,65.866844 c 0,-0.390758 -0.06862,-0.664911 -0.212493,-0.822623 -0.137076,-0.164508 -0.411228,-0.281114 -0.808865,-0.363326 v -0.541509 h 6.285699 v 0.541509 c -0.39076,0.08221 -0.65124,0.198818 -0.78831,0.349652 -0.1302,0.157546 -0.19874,0.431864 -0.19874,0.836297 V 80.14506 c 0,0.40443 0.0685,0.67858 0.19874,0.83621 0.13707,0.15075 0.39755,0.26736 0.78831,0.34957 v 0.54151 h -6.285699 v -0.54151 c 0.397637,-0.0822 0.671789,-0.19882 0.808865,-0.36332 0.143872,-0.15755 0.212493,-0.43187 0.212493,-0.82246 z m -12.989335,0 c 0,-0.390758 -0.06854,-0.664911 -0.21241,-0.822623 -0.137159,-0.164508 -0.411312,-0.281114 -0.808866,-0.363326 v -0.541509 h 6.285697 v 0.541509 c -0.390758,0.08221 -0.651236,0.198818 -0.788395,0.349652 -0.130115,0.157546 -0.198735,0.431864 -0.198735,0.836297 V 80.14506 c 0,0.40443 0.06862,0.67858 0.198735,0.83621 0.137159,0.15075 0.397637,0.26736 0.788395,0.34957 v 0.54151 H 79.151879 c -2.357975,0 -4.181321,-0.45242 -5.483627,-1.35725 -1.295677,-0.90484 -1.946747,-2.16604 -1.946747,-3.78368 0,-1.35038 0.41819,-2.460829 1.247443,-3.331436 0.829419,-0.870525 2.049595,-1.487368 3.674122,-1.850777 L 73.18832,66.73049 C 72.907371,66.326057 72.585151,65.983284 72.221908,65.688496 71.865377,65.39379 71.330747,65.057978 70.638487,64.680895 v -0.541509 h 7.450845 v 0.520955 c -0.294623,0.05486 -0.520873,0.143955 -0.671707,0.260478 -0.157546,0.123402 -0.232963,0.267274 -0.232963,0.445622 0,0.04111 0.05478,0.171387 0.157712,0.397471 0.109562,0.226251 0.226085,0.431865 0.342691,0.603334 l 3.495774,5.003778 h 4.517215 z M 80.762731,78.65753 h 4.935323 v -4.030491 h -5.099913 c -1.562702,0 -2.721219,0.164508 -3.475221,0.500403 -0.747124,0.335808 -1.124124,0.856768 -1.124124,1.562868 0,0.68546 0.370122,1.17899 1.103571,1.49425 0.740244,0.31534 1.953542,0.47297 3.660364,0.47297 z M 59.712339,67.470817 h -4.078555 c -2.063187,0 -3.632933,0.472888 -4.709072,1.418913 -1.076057,0.939063 -1.617731,2.316786 -1.617731,4.126457 0,1.823262 0.53463,3.187393 1.597178,4.105983 1.062464,0.91851 2.639089,1.37773 4.729625,1.37773 h 4.078555 z M 55.894428,81.87235 c -3.804486,0 -6.601122,-0.71969 -8.403914,-2.15915 -1.802709,-1.43955 -2.700749,-3.67413 -2.700749,-6.697013 0,-3.022886 0.89804,-5.264421 2.700749,-6.710683 1.802792,-1.446261 4.599428,-2.166118 8.403914,-2.166118 h 9.082332 v 0.541509 c -0.390758,0.08221 -0.651236,0.198818 -0.788395,0.349652 -0.130115,0.157546 -0.198735,0.431864 -0.198735,0.836297 V 80.14506 c 0,0.40443 0.06862,0.67858 0.198735,0.83621 0.137159,0.15075 0.397637,0.26736 0.788395,0.34957 v 0.54151 z m -32.62786,0 c -0.43866,0 -0.726653,0.0617 -0.856768,0.17818 -0.123484,0.12349 -0.233129,0.37709 -0.329016,0.76785 h -0.541509 v -5.51802 h 0.541509 c 0.08221,0.39755 0.198653,0.66491 0.349487,0.8019 0.157712,0.13028 0.431864,0.1989 0.836297,0.1989 h 10.864654 v -3.557681 h -6.66278 c -0.431782,0 -0.712813,0.06174 -0.843093,0.192023 -0.136994,0.130198 -0.246804,0.390678 -0.342691,0.795108 l -0.541509,0.0205 v -5.06552 h 0.541509 c 0.08221,0.390759 0.198736,0.651237 0.349569,0.78823 0.15763,0.130363 0.431782,0.198901 0.836215,0.198901 h 6.66278 V 67.676349 H 22.827908 c -0.431782,0 -0.712979,0.06174 -0.843094,0.178265 -0.137159,0.123402 -0.253599,0.390758 -0.363243,0.808866 h -0.521122 v -5.54537 h 0.521122 c 0.08221,0.397637 0.198735,0.671707 0.363243,0.808783 0.15763,0.143955 0.438661,0.212493 0.843094,0.212493 h 16.601963 v 0.541509 c -0.397637,0.08221 -0.671789,0.198818 -0.808865,0.363326 -0.144038,0.157712 -0.212493,0.431865 -0.212493,0.822623 V 80.14506 c 0,0.39059 0.06846,0.66491 0.212493,0.82246 0.137076,0.1645 0.411228,0.28111 0.808865,0.36332 v 0.54151 z"
     style="fill:#e74c3c;fill-opacity:1;fill-rule:evenodd;stroke-width:0.82875562"
     id="path3799"
     inkscape:connector-curvature="0" />
</svg>
