<?xml version="1.0" encoding="UTF-8" standalone="no"?>
<svg
   xmlns:dc="http://purl.org/dc/elements/1.1/"
   xmlns:cc="http://creativecommons.org/ns#"
   xmlns:rdf="http://www.w3.org/1999/02/22-rdf-syntax-ns#"
   xmlns:svg="http://www.w3.org/2000/svg"
   xmlns="http://www.w3.org/2000/svg"
   xmlns:sodipodi="http://sodipodi.sourceforge.net/DTD/sodipodi-0.dtd"
   xmlns:inkscape="http://www.inkscape.org/namespaces/inkscape"
   version="1.1"
   width="383.3158"
   height="102.81"
   id="svg3806"
   viewBox="0 0 383.31579 102.80999"
   sodipodi:docname="kirdeoptika-nav.svg"
   inkscape:version="0.92.2 (5c3e80d, 2017-08-06)">
  <metadata
     id="metadata3812">
    <rdf:RDF>
      <cc:Work
         rdf:about="">
        <dc:format>image/svg+xml</dc:format>
        <dc:type
           rdf:resource="http://purl.org/dc/dcmitype/StillImage" />
        <dc:title></dc:title>
      </cc:Work>
    </rdf:RDF>
  </metadata>
  <defs
     id="defs3810" />
  <sodipodi:namedview
     pagecolor="#ffffff"
     bordercolor="#666666"
     borderopacity="1"
     objecttolerance="10"
     gridtolerance="10"
     guidetolerance="10"
     inkscape:pageopacity="0"
     inkscape:pageshadow="2"
     inkscape:window-width="1366"
     inkscape:window-height="715"
     id="namedview3808"
     showgrid="false"
     inkscape:zoom="0.79286957"
     inkscape:cx="427.03049"
     inkscape:cy="79.345023"
     inkscape:window-x="-8"
     inkscape:window-y="-8"
     inkscape:window-maximized="1"
     inkscape:current-layer="svg3806" />
  <path
     d="m 174.7688,37.4171 h -12.2396 v 10.7791 h 12.564 c 3.7192,0 6.4647,-0.4462 8.2094,-1.3253 1.7448,-0.8928 2.6102,-2.2857 2.6102,-4.1792 0,-1.8798 -0.852,-3.2324 -2.5424,-4.0437 -1.6907,-0.825 -4.558,-1.2309 -8.6016,-1.2309 z m -23.6001,35.4612 v -1.0685 c 0.8113,-0.1622 1.3523,-0.3922 1.6229,-0.7167 0.2569,-0.3112 0.3922,-0.8521 0.3922,-1.6231 V 33.6979 c 0,-0.7438 -0.1218,-1.2713 -0.3788,-1.5823 -0.2434,-0.3247 -0.7978,-0.5816 -1.6363,-0.7979 v -1.0278 h 26.2237 c 5.5452,0 9.846,1.0819 12.9158,3.2457 3.0702,2.1639 4.5984,5.1934 4.5984,9.0751 0,3.9626 -1.4607,7.0866 -4.3955,9.3858 -2.9348,2.2991 -6.9379,3.4488 -12.0096,3.4488 H 162.5292 V 69.47 c 0,0.7981 0.1216,1.3391 0.3785,1.6231 0.2434,0.2976 0.7981,0.5273 1.6366,0.7167 v 1.0685 z"
     style="fill:#199eb8;fill-opacity:1;fill-rule:evenodd"
     id="path3779"
     inkscape:connector-curvature="0" />
  <path
     d="m 206.5242,37.823 c -0.825,0 -1.366,0.1216 -1.6501,0.3785 -0.2706,0.2571 -0.5003,0.7709 -0.6897,1.5691 H 203.116 V 28.2748 h 1.0278 c 0.1894,0.7844 0.4328,1.3253 0.7573,1.5957 0.3112,0.2841 0.8521,0.4194 1.6231,0.4194 h 35.6909 c 0.825,0 1.366,-0.1353 1.6501,-0.3922 0.2703,-0.2706 0.5003,-0.8116 0.6897,-1.6229 h 1.0682 v 11.5767 h -1.0682 c -0.1625,-0.7978 -0.3922,-1.3388 -0.7169,-1.6094 -0.311,-0.2838 -0.8519,-0.4191 -1.6229,-0.4191 H 228.9883 V 69.47 c 0,0.825 0.1216,1.366 0.3785,1.6501 0.2571,0.2706 0.7709,0.5003 1.5688,0.6897 v 1.0685 h -13.1997 v -1.0685 c 0.7844,-0.2163 1.3117,-0.4734 1.5552,-0.771 0.2571,-0.3109 0.4059,-0.8384 0.4599,-1.6092 V 37.823 Z"
     style="fill:#199eb8;fill-opacity:1;fill-rule:evenodd"
     id="path3781"
     inkscape:connector-curvature="0" />
  <path
     d="m 267.844,69.47 c 0,0.825 0.1216,1.366 0.3785,1.6501 0.2572,0.2706 0.771,0.514 1.5688,0.7303 v 1.0279 h -13.3215 v -1.0685 c 0.825,-0.1894 1.3525,-0.4328 1.596,-0.7303 0.23,-0.311 0.3516,-0.8385 0.3516,-1.6095 V 33.6979 c 0,-0.8248 -0.1216,-1.3795 -0.3788,-1.6905 -0.2569,-0.2975 -0.7707,-0.5275 -1.5688,-0.6897 v -1.0278 h 13.3215 v 1.0278 c -0.7707,0.1622 -1.2847,0.3922 -1.5551,0.6897 -0.2571,0.311 -0.3922,0.8657 -0.3922,1.6905 z"
     style="fill:#199eb8;fill-opacity:1;fill-rule:evenodd"
     id="path3783"
     inkscape:connector-curvature="0" />
  <path
     d="m 295.5827,69.47 c 0,0.7981 0.1216,1.3391 0.3785,1.6231 0.2434,0.2976 0.7981,0.5273 1.6366,0.7167 v 1.0685 h -13.3756 v -1.0685 c 0.8385,-0.2163 1.3929,-0.4734 1.6363,-0.771 0.2569,-0.3109 0.3788,-0.8248 0.3788,-1.5688 V 33.6979 c 0,-0.7979 -0.1353,-1.3389 -0.3922,-1.6498 -0.2706,-0.2976 -0.8116,-0.541 -1.6229,-0.7304 v -1.0278 h 13.3756 v 1.0278 c -0.7844,0.1894 -1.3254,0.4328 -1.596,0.7304 -0.2841,0.3109 -0.4191,0.8519 -0.4191,1.6498 v 14.5793 l 17.1083,-13.7137 0.1218,-0.0812 c 0.8519,-0.6761 1.2713,-1.2711 1.2713,-1.7717 0,-0.2975 -0.1625,-0.5679 -0.5006,-0.825 -0.3244,-0.2434 -0.7844,-0.4326 -1.3657,-0.5679 v -1.0278 h 17.9198 v 1.0278 c -2.5832,1.5011 -4.8824,3.0836 -6.8975,4.7199 -0.1081,0.0678 -0.1759,0.1219 -0.2028,0.1488 l -14.0656,11.293 16.811,20.2055 c 0.7032,0.6357 1.4876,1.2982 2.3533,1.961 0.8519,0.6763 1.8257,1.3929 2.9076,2.1639 v 1.0685 h -16.7973 v -1.0685 c 0.6357,-0.3651 1.0819,-0.7032 1.366,-0.9873 0.2704,-0.2975 0.4194,-0.6085 0.4194,-0.9603 0,-0.2838 -0.2572,-0.7166 -0.7575,-1.2982 -0.2163,-0.2434 -0.3516,-0.4194 -0.4328,-0.514 l -12.7671,-15.0661 -6.4916,5.0446 z"
     style="fill:#199eb8;fill-opacity:1;fill-rule:evenodd"
     id="path3785"
     inkscape:connector-curvature="0" />
  <path
     d="m 357.0378,41.15 -7.2491,15.012 h 14.1466 z m -24.601,31.7283 v -1.0685 c 1.4741,-0.3922 2.6779,-1.6094 3.611,-3.638 0.0676,-0.1894 0.1488,-0.3653 0.2298,-0.514 l 15.81,-33.0943 c 0.1894,-0.365 0.2978,-0.6222 0.3382,-0.7709 0.0406,-0.1488 0.0677,-0.2839 0.0677,-0.4192 0,-0.4734 -0.2028,-0.8791 -0.5815,-1.2172 -0.3788,-0.3516 -0.9467,-0.6222 -1.677,-0.8385 v -1.0278 h 14.4169 v 1.0278 c -0.7979,0.2704 -1.3254,0.5275 -1.6094,0.7979 -0.2704,0.2569 -0.4057,0.595 -0.4057,0.9872 0,0.1894 0.0272,0.3922 0.0947,0.6357 0.0675,0.23 0.1622,0.514 0.2975,0.825 l 16.3241,33.1349 c 0.7167,1.42 1.3523,2.421 1.9204,2.9888 0.5679,0.5682 1.2442,0.9332 2.0423,1.1226 v 1.0685 h -15.3369 v -1.0685 c 0.7438,-0.2435 1.2579,-0.5004 1.5688,-0.771 0.2976,-0.2838 0.46,-0.6356 0.46,-1.0954 0,-0.1759 -0.0271,-0.3787 -0.0812,-0.595 -0.0541,-0.2028 -0.1622,-0.5003 -0.3247,-0.8656 l -3.0835,-6.5322 h -19.5428 l -2.9348,6.5322 c -0.1488,0.3653 -0.2569,0.6628 -0.311,0.8656 -0.054,0.2163 -0.0812,0.4191 -0.0812,0.595 0,0.4598 0.1488,0.8116 0.4597,1.0954 0.2978,0.2706 0.8251,0.5275 1.5691,0.771 v 1.0685 z"
     style="fill:#199eb8;fill-opacity:1;fill-rule:evenodd"
     id="path3787"
     inkscape:connector-curvature="0" />
  <path
     d="m 65.1649,41.3316 c 0,8.2505 2.6733,14.8563 8.045,19.843 5.3721,5.0122 12.5434,7.5055 21.5142,7.5055 8.9191,0 16.0904,-2.5189 21.4621,-7.5311 5.3977,-5.0122 8.0966,-11.618 8.0966,-19.8174 0,-8.2254 -2.6989,-14.8568 -8.1222,-19.869 -5.4233,-5.0123 -12.6206,-7.5312 -21.5909,-7.5312 -8.8164,0 -15.9361,2.5189 -21.3082,7.5568 -5.3978,5.0638 -8.0966,11.6696 -8.0966,19.8434 z M 94.5697,0 c 13.6998,0 24.9324,3.9585 33.7232,11.8496 8.7648,7.9166 13.16,17.8895 13.16,29.9447 0,12.0547 -4.4207,22.0536 -13.2371,30.0214 -8.842,7.9426 -20.049,11.9268 -33.6461,11.9268 -13.3916,0 -24.4953,-4.0097 -33.3373,-12.0036 C 52.416,63.7191 47.9947,53.7462 47.9947,41.7943 47.9947,29.7907 52.3643,19.8434 61.1292,11.9008 69.8684,3.9585 81.0238,0 94.5697,0 Z"
     style="fill:#199eb8;fill-opacity:1;fill-rule:evenodd"
     id="path3789"
     inkscape:connector-curvature="0" />
  <path
     d="m 141.2409,99.3906 c 0,0.8007 -0.1222,1.3433 -0.38,1.6282 -0.2442,0.2986 -0.8005,0.5293 -1.6419,0.7193 v 1.0719 h 13.4197 v -1.0719 c -0.8412,-0.2171 -1.3976,-0.4749 -1.6418,-0.7735 -0.2578,-0.3121 -0.38,-0.8278 -0.38,-1.574 V 63.5008 c 0,-0.8006 0.1358,-1.3432 0.3936,-1.6553 0.2714,-0.2986 0.8141,-0.5428 1.6282,-0.7327 V 60.0815 H 139.219 v 1.0313 c 0.787,0.1899 1.3298,0.4341 1.6013,0.7327 0.2849,0.3121 0.4206,0.8547 0.4206,1.6553 v 14.6273 l -17.1648,-13.7589 -0.122,-0.0814 c -0.8549,-0.6784 -1.2755,-1.2755 -1.2755,-1.7775 0,-0.2984 0.1628,-0.5699 0.502,-0.8277 0.3258,-0.2442 0.787,-0.4341 1.3706,-0.5698 v -1.0313 h -17.9789 v 1.0313 c 2.5916,1.506 4.8984,3.0936 6.9201,4.7354 0.1087,0.068 0.1764,0.1222 0.2035,0.1493 l 14.1118,11.3302 -16.8661,20.2718 c -0.7058,0.6378 -1.4927,1.3026 -2.3611,1.9676 -0.8549,0.6784 -1.8318,1.3975 -2.9173,2.171 v 1.0719 h 16.8526 v -1.0719 c -0.6378,-0.3664 -1.0855,-0.7056 -1.3705,-0.9906 -0.2713,-0.2986 -0.4206,-0.6107 -0.4206,-0.9634 0,-0.2849 0.2578,-0.7192 0.7598,-1.3026 0.2171,-0.2442 0.3529,-0.4206 0.4343,-0.5156 l 12.809,-15.1158 6.5131,5.0611 z"
     style="fill:#e74c3c;fill-opacity:1;fill-rule:evenodd"
     id="path3794"
     inkscape:connector-curvature="0" />
  <path
     d="m 93.6186,61.6871 c 0,-0.4715 -0.0828,-0.8023 -0.2564,-0.9926 -0.1654,-0.1985 -0.4962,-0.3392 -0.976,-0.4384 v -0.6534 h 7.5845 v 0.6534 c -0.4715,0.0992 -0.7858,0.2399 -0.9512,0.4219 -0.1571,0.1901 -0.2398,0.5211 -0.2398,1.0091 v 17.2285 c 0,0.488 0.0827,0.8188 0.2398,1.009 0.1654,0.1819 0.4797,0.3226 0.9512,0.4218 v 0.6534 h -7.5845 v -0.6534 c 0.4798,-0.0992 0.8106,-0.2399 0.976,-0.4384 0.1736,-0.1901 0.2564,-0.5211 0.2564,-0.9924 z m -15.6733,0 c 0,-0.4715 -0.0827,-0.8023 -0.2563,-0.9926 -0.1655,-0.1985 -0.4963,-0.3392 -0.976,-0.4384 v -0.6534 h 7.5845 v 0.6534 c -0.4715,0.0992 -0.7858,0.2399 -0.9513,0.4219 -0.157,0.1901 -0.2398,0.5211 -0.2398,1.0091 v 17.2285 c 0,0.488 0.0828,0.8188 0.2398,1.009 0.1655,0.1819 0.4798,0.3226 0.9513,0.4218 v 0.6534 h -14.251 c -2.8452,0 -5.0453,-0.5459 -6.6167,-1.6377 -1.5634,-1.0918 -2.349,-2.6136 -2.349,-4.5655 0,-1.6294 0.5046,-2.9693 1.5052,-4.0198 1.0008,-1.0504 2.4731,-1.7947 4.4333,-2.2332 l -4.1686,-5.8144 c -0.339,-0.488 -0.7278,-0.9016 -1.1661,-1.2573 -0.4302,-0.3556 -1.0753,-0.7608 -1.9106,-1.2158 v -0.6534 h 8.9904 v 0.6286 c -0.3555,0.0662 -0.6285,0.1737 -0.8105,0.3143 -0.1901,0.1489 -0.2811,0.3225 -0.2811,0.5377 0,0.0496 0.0661,0.2068 0.1903,0.4796 0.1322,0.273 0.2728,0.5211 0.4135,0.728 l 4.2181,6.0377 h 5.4506 z m -5.9551,15.4336 h 5.9551 v -4.8633 h -6.1537 c -1.8856,0 -3.2835,0.1985 -4.1933,0.6038 -0.9015,0.4052 -1.3564,1.0338 -1.3564,1.8858 0,0.8271 0.4466,1.4226 1.3316,1.803 0.8932,0.3805 2.3572,0.5707 4.4167,0.5707 z m -25.4,-13.4982 h -4.9213 c -2.4895,0 -4.3836,0.5706 -5.6821,1.7121 -1.2984,1.1331 -1.952,2.7955 -1.952,4.9791 0,2.2 0.6451,3.846 1.9272,4.9544 1.282,1.1083 3.1844,1.6624 5.7069,1.6624 h 4.9213 z m -4.6068,17.3773 c -4.5906,0 -7.9651,-0.8684 -10.1404,-2.6053 -2.1752,-1.737 -3.2588,-4.4333 -3.2588,-8.0808 0,-3.6475 1.0836,-6.3522 3.2588,-8.0973 2.1753,-1.7451 5.5498,-2.6137 10.1404,-2.6137 h 10.959 v 0.6534 c -0.4715,0.0992 -0.7858,0.2399 -0.9513,0.4219 -0.157,0.1901 -0.2398,0.5211 -0.2398,1.0091 v 17.2285 c 0,0.488 0.0828,0.8188 0.2398,1.009 0.1655,0.1819 0.4798,0.3226 0.9513,0.4218 v 0.6534 z m -39.3697,0 c -0.5293,0 -0.8768,0.0744 -1.0338,0.215 -0.149,0.149 -0.2813,0.455 -0.397,0.9265 H 0.5295 v -6.6582 h 0.6534 c 0.0992,0.4797 0.2397,0.8023 0.4217,0.9676 0.1903,0.1572 0.5211,0.24 1.0091,0.24 H 15.7233 V 72.3979 H 7.6838 c -0.521,0 -0.8601,0.0745 -1.0173,0.2317 C 6.5012,72.7867 6.3687,73.101 6.253,73.589 L 5.5996,73.6137 V 67.5015 H 6.253 c 0.0992,0.4715 0.2398,0.7858 0.4218,0.9511 0.1902,0.1573 0.521,0.24 1.009,0.24 h 8.0395 V 63.8705 H 2.0844 c -0.521,0 -0.8603,0.0745 -1.0173,0.2151 -0.1655,0.1489 -0.306,0.4715 -0.4383,0.976 H 0 v -6.6912 h 0.6288 c 0.0992,0.4798 0.2398,0.8105 0.4383,0.9759 0.1902,0.1737 0.5293,0.2564 1.0173,0.2564 h 20.0324 v 0.6534 c -0.4798,0.0992 -0.8106,0.2399 -0.976,0.4384 -0.1738,0.1903 -0.2564,0.5211 -0.2564,0.9926 v 17.2285 c 0,0.4713 0.0826,0.8023 0.2564,0.9924 0.1654,0.1985 0.4962,0.3392 0.976,0.4384 v 0.6534 z"
     style="fill:#e74c3c;fill-opacity:1;fill-rule:evenodd"
     id="path3799"
     inkscape:connector-curvature="0" />
</svg>
