<?xml version="1.0" encoding="UTF-8" standalone="no"?>
<svg
   xmlns:dc="http://purl.org/dc/elements/1.1/"
   xmlns:cc="http://creativecommons.org/ns#"
   xmlns:rdf="http://www.w3.org/1999/02/22-rdf-syntax-ns#"
   xmlns:svg="http://www.w3.org/2000/svg"
   xmlns="http://www.w3.org/2000/svg"
   xmlns:sodipodi="http://sodipodi.sourceforge.net/DTD/sodipodi-0.dtd"
   xmlns:inkscape="http://www.inkscape.org/namespaces/inkscape"
   version="1.1"
   width="434.3862"
   height="144.79539"
   id="svg3806"
   viewBox="0 0 434.3862 144.79539"
   sodipodi:docname="kirdeoptika-changed.svg"
   inkscape:version="0.92.2 (5c3e80d, 2017-08-06)">
  <metadata
     id="metadata3812">
    <rdf:RDF>
      <cc:Work
         rdf:about="">
        <dc:format>image/svg+xml</dc:format>
        <dc:type
           rdf:resource="http://purl.org/dc/dcmitype/StillImage" />
        <dc:title></dc:title>
      </cc:Work>
    </rdf:RDF>
  </metadata>
  <defs
     id="defs3810" />
  <sodipodi:namedview
     pagecolor="#ffffff"
     bordercolor="#666666"
     borderopacity="1"
     objecttolerance="10"
     gridtolerance="10"
     guidetolerance="10"
     inkscape:pageopacity="0"
     inkscape:pageshadow="2"
     inkscape:window-width="1366"
     inkscape:window-height="715"
     id="namedview3808"
     showgrid="false"
     inkscape:zoom="1.1212869"
     inkscape:cx="177.68666"
     inkscape:cy="47.372555"
     inkscape:window-x="-8"
     inkscape:window-y="-8"
     inkscape:window-maximized="1"
     inkscape:current-layer="svg3806" />
  <path
     d="M 0,0 H 434.3862 V 144.7954 H 0 Z"
     style="fill:#ecf0f1;fill-rule:evenodd;fill-opacity:1"
     id="path3768"
     inkscape:connector-curvature="0" />
  <path
     d="m 11.4774,12.1475 h 411.4313 v 3.6467 H 11.4774 Z"
     style="fill:#ffffff;fill-rule:evenodd"
     id="path3770"
     inkscape:connector-curvature="0" />
  <g
     id="Layer1000"
     transform="translate(-83.6538,-118.6537)">
    <path
       d="m 95.1312,247.6548 h 411.4313 v 3.6469 H 95.1312 Z"
       style="fill:#ffffff;fill-rule:evenodd"
       id="path3772"
       inkscape:connector-curvature="0" />
    <path
       d="m 95.1312,217.8678 h 411.4313 v 3.6468 H 95.1312 Z"
       style="fill:#ffffff;fill-rule:evenodd"
       id="path3774"
       inkscape:connector-curvature="0" />
  </g>
  <path
     d="m 11.4774,30.4346 h 411.4313 v 3.6468 H 11.4774 Z"
     style="fill:#ffffff;fill-rule:evenodd"
     id="path3777"
     inkscape:connector-curvature="0" />
  <path
     d="m 200.2292,55.2068 h -12.2396 v 10.7791 h 12.564 c 3.7192,0 6.4647,-0.4462 8.2094,-1.3253 1.7448,-0.8928 2.6102,-2.2857 2.6102,-4.1792 0,-1.8798 -0.852,-3.2324 -2.5424,-4.0437 -1.6907,-0.825 -4.558,-1.2309 -8.6016,-1.2309 z M 176.6291,90.668 v -1.0685 c 0.8113,-0.1622 1.3523,-0.3922 1.6229,-0.7167 0.2569,-0.3112 0.3922,-0.8521 0.3922,-1.6231 V 51.4876 c 0,-0.7438 -0.1218,-1.2713 -0.3788,-1.5823 -0.2434,-0.3247 -0.7978,-0.5816 -1.6363,-0.7979 v -1.0278 h 26.2237 c 5.5452,0 9.846,1.0819 12.9158,3.2457 3.0702,2.1639 4.5984,5.1934 4.5984,9.0751 0,3.9626 -1.4607,7.0866 -4.3955,9.3858 -2.9348,2.2991 -6.9379,3.4488 -12.0096,3.4488 h -15.9723 v 14.0247 c 0,0.7981 0.1216,1.3391 0.3785,1.6231 0.2434,0.2976 0.7981,0.5273 1.6366,0.7167 v 1.0685 z"
     style="fill:#2980b9;fill-rule:evenodd;fill-opacity:1"
     id="path3779"
     inkscape:connector-curvature="0" />
  <path
     d="m 231.9846,55.6127 c -0.825,0 -1.366,0.1216 -1.6501,0.3785 -0.2706,0.2571 -0.5003,0.7709 -0.6897,1.5691 h -1.0684 V 46.0645 h 1.0278 c 0.1894,0.7844 0.4328,1.3253 0.7573,1.5957 0.3112,0.2841 0.8521,0.4194 1.6231,0.4194 h 35.6909 c 0.825,0 1.366,-0.1353 1.6501,-0.3922 0.2703,-0.2706 0.5003,-0.8116 0.6897,-1.6229 h 1.0682 v 11.5767 h -1.0682 c -0.1625,-0.7978 -0.3922,-1.3388 -0.7169,-1.6094 -0.311,-0.2838 -0.8519,-0.4191 -1.6229,-0.4191 h -13.2268 v 31.647 c 0,0.825 0.1216,1.366 0.3785,1.6501 0.2571,0.2706 0.7709,0.5003 1.5688,0.6897 v 1.0685 h -13.1997 v -1.0685 c 0.7844,-0.2163 1.3117,-0.4734 1.5552,-0.771 0.2571,-0.3109 0.4059,-0.8384 0.4599,-1.6092 V 55.6127 Z"
     style="fill:#2980b9;fill-rule:evenodd;fill-opacity:1"
     id="path3781"
     inkscape:connector-curvature="0" />
  <path
     d="m 293.3044,87.2597 c 0,0.825 0.1216,1.366 0.3785,1.6501 0.2572,0.2706 0.771,0.514 1.5688,0.7303 v 1.0279 h -13.3215 v -1.0685 c 0.825,-0.1894 1.3525,-0.4328 1.596,-0.7303 0.23,-0.311 0.3516,-0.8385 0.3516,-1.6095 V 51.4876 c 0,-0.8248 -0.1216,-1.3795 -0.3788,-1.6905 -0.2569,-0.2975 -0.7707,-0.5275 -1.5688,-0.6897 v -1.0278 h 13.3215 v 1.0278 c -0.7707,0.1622 -1.2847,0.3922 -1.5551,0.6897 -0.2571,0.311 -0.3922,0.8657 -0.3922,1.6905 z"
     style="fill:#2980b9;fill-rule:evenodd;fill-opacity:1"
     id="path3783"
     inkscape:connector-curvature="0" />
  <path
     d="m 321.0431,87.2597 c 0,0.7981 0.1216,1.3391 0.3785,1.6231 0.2434,0.2976 0.7981,0.5273 1.6366,0.7167 v 1.0685 h -13.3756 v -1.0685 c 0.8385,-0.2163 1.3929,-0.4734 1.6363,-0.771 0.2569,-0.3109 0.3788,-0.8248 0.3788,-1.5688 V 51.4876 c 0,-0.7979 -0.1353,-1.3389 -0.3922,-1.6498 -0.2706,-0.2976 -0.8116,-0.541 -1.6229,-0.7304 v -1.0278 h 13.3756 v 1.0278 c -0.7844,0.1894 -1.3254,0.4328 -1.596,0.7304 -0.2841,0.3109 -0.4191,0.8519 -0.4191,1.6498 v 14.5793 l 17.1083,-13.7137 0.1218,-0.0812 c 0.8519,-0.6761 1.2713,-1.2711 1.2713,-1.7717 0,-0.2975 -0.1625,-0.5679 -0.5006,-0.825 -0.3244,-0.2434 -0.7844,-0.4326 -1.3657,-0.5679 v -1.0278 h 17.9198 v 1.0278 c -2.5832,1.5011 -4.8824,3.0836 -6.8975,4.7199 -0.1081,0.0678 -0.1759,0.1219 -0.2028,0.1488 l -14.0656,11.293 16.811,20.2055 c 0.7032,0.6357 1.4876,1.2982 2.3533,1.961 0.8519,0.6763 1.8257,1.3929 2.9076,2.1639 v 1.0685 h -16.7973 v -1.0685 c 0.6357,-0.3651 1.0819,-0.7032 1.366,-0.9873 0.2704,-0.2975 0.4194,-0.6085 0.4194,-0.9603 0,-0.2838 -0.2572,-0.7166 -0.7575,-1.2982 -0.2163,-0.2434 -0.3516,-0.4194 -0.4328,-0.514 l -12.7671,-15.0661 -6.4916,5.0446 z"
     style="fill:#2980b9;fill-rule:evenodd;fill-opacity:1"
     id="path3785"
     inkscape:connector-curvature="0" />
  <path
     d="m 382.4982,58.9397 -7.2491,15.012 h 14.1466 z m -24.601,31.7283 v -1.0685 c 1.4741,-0.3922 2.6779,-1.6094 3.611,-3.638 0.0676,-0.1894 0.1488,-0.3653 0.2298,-0.514 l 15.81,-33.0943 c 0.1894,-0.365 0.2978,-0.6222 0.3382,-0.7709 0.0406,-0.1488 0.0677,-0.2839 0.0677,-0.4192 0,-0.4734 -0.2028,-0.8791 -0.5815,-1.2172 -0.3788,-0.3516 -0.9467,-0.6222 -1.677,-0.8385 v -1.0278 h 14.4169 v 1.0278 c -0.7979,0.2704 -1.3254,0.5275 -1.6094,0.7979 -0.2704,0.2569 -0.4057,0.595 -0.4057,0.9872 0,0.1894 0.0272,0.3922 0.0947,0.6357 0.0675,0.23 0.1622,0.514 0.2975,0.825 l 16.3241,33.1349 c 0.7167,1.42 1.3523,2.421 1.9204,2.9888 0.5679,0.5682 1.2442,0.9332 2.0423,1.1226 v 1.0685 h -15.3369 v -1.0685 c 0.7438,-0.2435 1.2579,-0.5004 1.5688,-0.771 0.2976,-0.2838 0.46,-0.6356 0.46,-1.0954 0,-0.1759 -0.0271,-0.3787 -0.0812,-0.595 -0.0541,-0.2028 -0.1622,-0.5003 -0.3247,-0.8656 l -3.0835,-6.5322 h -19.5428 l -2.9348,6.5322 c -0.1488,0.3653 -0.2569,0.6628 -0.311,0.8656 -0.054,0.2163 -0.0812,0.4191 -0.0812,0.595 0,0.4598 0.1488,0.8116 0.4597,1.0954 0.2978,0.2706 0.8251,0.5275 1.5691,0.771 v 1.0685 z"
     style="fill:#2980b9;fill-rule:evenodd;fill-opacity:1"
     id="path3787"
     inkscape:connector-curvature="0" />
  <path
     d="m 90.6253,59.1213 c 0,8.2505 2.6733,14.8563 8.045,19.843 5.3721,5.0122 12.5434,7.5055 21.5142,7.5055 8.9191,0 16.0904,-2.5189 21.4621,-7.5311 5.3977,-5.0122 8.0966,-11.618 8.0966,-19.8174 0,-8.2254 -2.6989,-14.8568 -8.1222,-19.869 -5.4233,-5.0123 -12.6206,-7.5312 -21.5909,-7.5312 -8.8164,0 -15.9361,2.5189 -21.3082,7.5568 -5.3978,5.0638 -8.0966,11.6696 -8.0966,19.8434 z m 29.4048,-41.3316 c 13.6998,0 24.9324,3.9585 33.7232,11.8496 8.7648,7.9166 13.16,17.8895 13.16,29.9447 0,12.0547 -4.4207,22.0536 -13.2371,30.0214 -8.842,7.9426 -20.049,11.9268 -33.6461,11.9268 -13.3916,0 -24.4953,-4.0097 -33.3373,-12.0036 C 77.8764,81.5088 73.4551,71.5359 73.4551,59.584 c 0,-12.0036 4.3696,-21.9509 13.1345,-29.8935 8.7392,-7.9423 19.8946,-11.9008 33.4405,-11.9008 z"
     style="fill:#2980b9;fill-rule:evenodd;fill-opacity:1"
     id="path3789"
     inkscape:connector-curvature="0" />
  <g
     id="Layer1001"
     transform="translate(-83.6538,-118.6537)">
    <path
       d="m 2420.9765,860.7027 -0.04,0.2631 c -0.024,0.0865 -0.048,0.1596 -0.092,0.2415 -0.043,0.0561 -0.08,0.0918 -0.1386,0.1366 -0.3186,0.1888 -0.6903,0.2605 -1.0491,0.3481 v 1.2138 h 9.4252 v -1.207 l -0.5732,-0.1652 -0.2792,-0.1106 -0.1928,-0.1083 -0.1037,-0.0924 c -0.1468,-0.2052 -0.1653,-0.4504 -0.1826,-0.6928 v -23.8518 l 0.015,-0.3396 0.043,-0.2642 0.063,-0.1905 0.07,-0.1151 c 0.1947,-0.1885 0.4838,-0.2721 0.7407,-0.3478 l 0.4025,-0.1009 v -1.1854 h -9.4252 v 1.1837 l 0.5539,0.1505 0.2673,0.1027 0.1927,0.1051 0.116,0.0967 0.078,0.1182 0.066,0.1862 0.044,0.2619 0.016,0.3388 v 9.0615 l -10.8791,-8.7202 c -0.2024,-0.1358 -0.3795,-0.3107 -0.5479,-0.491 -0.1193,-0.1514 -0.2682,-0.3333 -0.2562,-0.5423 0.044,-0.2029 0.2766,-0.3356 0.4461,-0.422 l 0.201,-0.0837 c 0.1939,-0.0643 0.3898,-0.1114 0.5865,-0.1598 v -1.1863 h -12.4347 v 1.1267 c 0.4651,0.2727 0.9255,0.5483 1.3796,0.8323 0.3948,0.2514 0.7843,0.5074 1.1687,0.7682 0.5516,0.3815 1.0908,0.7744 1.6194,1.1817 l 0.5191,0.4125 c 0.041,0.0255 0.081,0.051 0.1136,0.0816 l 9.0978,7.3049 -10.9349,13.1431 -0.3416,0.3025 c -0.7506,0.646 -1.5321,1.2518 -2.3312,1.8377 -0.2937,0.2151 -0.5924,0.4294 -0.8906,0.6437 v 1.1367 h 11.6912 v -1.1531 c -0.1846,-0.1089 -0.3666,-0.2177 -0.5454,-0.3362 -0.1701,-0.1202 -0.3484,-0.2475 -0.4845,-0.4065 l -0.077,-0.1145 c -0.048,-0.095 -0.082,-0.1851 -0.072,-0.2928 0.041,-0.1469 0.1361,-0.2756 0.2237,-0.3986 0.1505,-0.1944 0.3172,-0.3804 0.4722,-0.5714 l 8.3007,-9.7952 3.9753,3.089 v 7.6161 z"
       style="fill:#ffffff;fill-rule:evenodd"
       id="path3791"
       inkscape:connector-curvature="0" />
  </g>
  <path
     d="m 166.7013,117.1803 c 0,0.8007 -0.1222,1.3433 -0.38,1.6282 -0.2442,0.2986 -0.8005,0.5293 -1.6419,0.7193 v 1.0719 h 13.4197 v -1.0719 c -0.8412,-0.2171 -1.3976,-0.4749 -1.6418,-0.7735 -0.2578,-0.3121 -0.38,-0.8278 -0.38,-1.574 V 81.2905 c 0,-0.8006 0.1358,-1.3432 0.3936,-1.6553 0.2714,-0.2986 0.8141,-0.5428 1.6282,-0.7327 v -1.0313 h -13.4197 v 1.0313 c 0.787,0.1899 1.3298,0.4341 1.6013,0.7327 0.2849,0.3121 0.4206,0.8547 0.4206,1.6553 v 14.6273 l -17.1648,-13.7589 -0.122,-0.0814 C 148.5596,81.3991 148.139,80.802 148.139,80.3 c 0,-0.2984 0.1628,-0.5699 0.502,-0.8277 0.3258,-0.2442 0.787,-0.4341 1.3706,-0.5698 v -1.0313 h -17.9789 v 1.0313 c 2.5916,1.506 4.8984,3.0936 6.9201,4.7354 0.1087,0.068 0.1764,0.1222 0.2035,0.1493 l 14.1118,11.3302 -16.8661,20.2718 c -0.7058,0.6378 -1.4927,1.3026 -2.3611,1.9676 -0.8549,0.6784 -1.8318,1.3975 -2.9173,2.171 v 1.0719 h 16.8526 v -1.0719 c -0.6378,-0.3664 -1.0855,-0.7056 -1.3705,-0.9906 -0.2713,-0.2986 -0.4206,-0.6107 -0.4206,-0.9634 0,-0.2849 0.2578,-0.7192 0.7598,-1.3026 0.2171,-0.2442 0.3529,-0.4206 0.4343,-0.5156 l 12.809,-15.1158 6.5131,5.0611 z"
     style="fill:#e74c3c;fill-rule:evenodd;fill-opacity:1"
     id="path3794"
     inkscape:connector-curvature="0" />
  <g
     id="Layer1002"
     transform="translate(-83.6538,-118.6537)">
    <path
       d="m 2389.5561,835.4815 c 0,-0.1452 0,-0.3172 -0.082,-0.4493 -0.092,-0.1185 -0.2611,-0.1602 -0.4028,-0.1987 l -0.3291,-0.0732 v -0.9422 h 5.5735 v 0.9417 c -0.2203,0.0493 -0.4581,0.0845 -0.6526,0.2018 -0.023,0.0173 -0.04,0.0303 -0.055,0.051 -0.074,0.1429 -0.076,0.313 -0.079,0.4677 v 11.4721 c 0.01,0.1154 0.015,0.277 0.088,0.377 0.093,0.0891 0.2475,0.1302 0.3708,0.1642 l 0.3257,0.0757 v 0.9396 h -5.5735 v -0.9405 c 0.2129,-0.0487 0.4283,-0.0847 0.6219,-0.1806 0.047,-0.0286 0.078,-0.0515 0.1094,-0.0927 0.077,-0.1326 0.078,-0.3033 0.082,-0.4492 z m -10.4275,-0.4493 c -0.092,-0.1185 -0.2608,-0.1602 -0.4025,-0.1987 l -0.3294,-0.0729 v -0.9425 h 5.5735 v 0.9417 c -0.2186,0.049 -0.4564,0.0836 -0.6526,0.2018 -0.021,0.0156 -0.039,0.0301 -0.055,0.051 -0.074,0.142 -0.076,0.3141 -0.079,0.4677 v 11.4721 c 0.01,0.1146 0.017,0.279 0.088,0.3773 0.093,0.0896 0.2508,0.131 0.3702,0.1639 l 0.3257,0.0757 v 0.9396 l -10.0452,-0.004 -0.6797,-0.0349 -0.6421,-0.0697 -0.6037,-0.1046 -0.2875,-0.0652 -0.5476,-0.1585 -0.2597,-0.0929 -0.2497,-0.1015 -0.241,-0.1111 -0.2307,-0.1205 -0.2214,-0.1295 -0.2148,-0.1412 -0.3856,-0.3011 -0.3387,-0.3339 -0.2886,-0.3651 -0.2369,-0.3946 -0.1846,-0.4235 -0.1309,-0.4504 -0.078,-0.4756 -0.026,-0.4984 0.016,-0.4195 0.05,-0.4008 0.083,-0.3844 0.1176,-0.3668 0.1508,-0.3489 0.1851,-0.33 0.218,-0.3107 0.2509,-0.2894 0.2809,-0.269 0.3115,-0.2475 0.3405,-0.2256 0.3699,-0.2041 0.3983,-0.1837 c 0.3163,-0.1199 0.6321,-0.2415 0.9572,-0.3226 l -2.5911,-3.6133 c -0.082,-0.1054 -0.1661,-0.2063 -0.2551,-0.3058 -0.1542,-0.1599 -0.3127,-0.3014 -0.487,-0.4394 -0.2903,-0.2137 -0.5981,-0.3997 -0.9139,-0.5803 l -0.3453,-0.1902 v -0.8824 h 6.5013 v 0.9306 c -0.2075,0.0417 -0.4289,0.0681 -0.6157,0.1789 -0.044,0.0317 -0.093,0.0672 -0.1026,0.1247 0.09,0.235 0.2106,0.4567 0.3475,0.6647 l 2.6975,3.8611 h 3.1665 v -4.1987 c -0.01,-0.1173 -0.017,-0.2409 -0.079,-0.3472 z m -3.564,10.3493 h 3.6456 v -2.6433 l -4.2227,0.006 -0.4119,0.0179 -0.381,0.0297 -0.3481,0.0423 -0.3166,0.0533 -0.2832,0.0646 -0.2503,0.0754 -0.216,0.0848 -0.1823,0.0932 -0.1527,0.1018 -0.1242,0.1086 -0.097,0.1153 -0.075,0.1233 -0.053,0.133 -0.032,0.1471 -0.011,0.1638 0.011,0.1562 0.032,0.1392 0.051,0.1256 0.072,0.1156 0.094,0.1075 0.1207,0.102 0.1491,0.0955 0.1783,0.0876 0.2138,0.0791 0.2542,0.0709 0.2931,0.0612 0.3323,0.0508 0.3704,0.0396 0.4088,0.029 0.4465,0.0175 z m -17.0515,-8.3429 -3.2607,0.004 -0.561,0.034 -0.5224,0.0678 -0.4828,0.1012 -0.4447,0.134 -0.4054,0.1653 -0.3682,0.1976 -0.3311,0.2287 -0.2968,0.2597 -0.2582,0.2871 -0.222,0.3178 -0.1856,0.3487 -0.1494,0.3821 -0.1134,0.4144 -0.076,0.4501 -0.038,0.4845 3e-4,0.5133 0.038,0.4865 0.075,0.4504 0.1117,0.4138 0.1479,0.379 0.087,0.1763 0.096,0.1681 0.1049,0.1605 0.1133,0.1522 0.1228,0.1446 0.1318,0.1372 0.1414,0.1298 0.1497,0.1219 0.1596,0.1145 0.3475,0.2067 0.3864,0.176 0.4269,0.1463 0.4666,0.1139 0.5079,0.0825 0.548,0.0496 0.591,0.017 h 2.9628 z m -2.7593,11.4703 -0.5644,-0.007 -0.5473,-0.0207 -0.5292,-0.0343 -0.5109,-0.0476 -0.4929,-0.0618 -0.4745,-0.0754 -0.4564,-0.0893 -0.4379,-0.1029 -0.4207,-0.1179 -0.4025,-0.1315 -0.3844,-0.146 -0.3657,-0.1599 -0.3486,-0.1751 -0.3297,-0.1891 -0.3113,-0.2044 -0.2925,-0.2188 -0.2749,-0.2345 -0.2574,-0.2503 -0.2396,-0.2661 -0.2216,-0.2815 -0.2041,-0.2971 -0.1854,-0.3121 -0.1678,-0.3268 -0.1491,-0.3413 -0.1321,-0.3566 -0.1134,-0.3702 -0.096,-0.3849 -0.078,-0.3986 -0.061,-0.413 -0.043,-0.4272 -0.026,-0.4411 -0.01,-0.4544 0.01,-0.4552 0.026,-0.4411 0.043,-0.4277 0.061,-0.413 0.078,-0.3994 0.096,-0.3853 0.1134,-0.3713 0.1321,-0.3563 0.1491,-0.3427 0.1678,-0.3277 0.1851,-0.3132 0.2041,-0.2977 0.2214,-0.2826 0.2398,-0.267 0.2577,-0.2512 0.2746,-0.2344 0.292,-0.2205 0.3118,-0.205 0.3297,-0.1904 0.3484,-0.1752 0.3656,-0.1613 0.3847,-0.1463 0.4025,-0.1324 0.4207,-0.1173 0.4376,-0.1038 0.457,-0.0895 0.4745,-0.0754 0.4929,-0.0616 0.5109,-0.0484 0.5292,-0.0338 0.5476,-0.0207 0.5641,-0.006 h 7.5192 v 0.9417 c -0.2185,0.049 -0.4564,0.0836 -0.6525,0.2018 -0.021,0.0159 -0.039,0.0298 -0.055,0.051 -0.074,0.142 -0.076,0.3133 -0.079,0.4677 v 11.4721 c 0.01,0.1154 0.016,0.2787 0.088,0.3773 0.093,0.0896 0.2509,0.131 0.3702,0.1639 l 0.3257,0.0757 v 0.9396 z m -25.9835,0 c -0.1547,0.003 -0.3211,0.003 -0.4714,0.0579 -0.026,0.0127 -0.025,0.0144 -0.044,0.0431 -0.1106,0.1944 -0.1559,0.4365 -0.2109,0.6528 h -0.9352 v -4.9621 h 0.9423 c 0.049,0.2197 0.084,0.4652 0.2024,0.6633 0.015,0.021 0.028,0.0383 0.048,0.053 0.1426,0.0746 0.3144,0.0771 0.4695,0.0808 h 8.3667 v -2.2666 l -5.1358,0.002 c -0.1125,0.007 -0.2273,0.0127 -0.3368,0.0561 -0.072,0.0405 -0.1082,0.1525 -0.1383,0.2273 -0.053,0.1596 -0.092,0.3268 -0.1335,0.4927 l -0.938,0.0357 v -4.6125 h 0.9411 c 0.049,0.2174 0.084,0.4561 0.2021,0.6519 0.015,0.0202 0.029,0.0389 0.05,0.0536 0.1426,0.0746 0.3144,0.0774 0.4694,0.0805 h 5.0202 v -2.6161 l -8.8325,0.002 c -0.1139,0.007 -0.2574,0.01 -0.3634,0.0646 -0.026,0.0187 -0.044,0.0544 -0.062,0.0842 -0.096,0.2013 -0.1468,0.4178 -0.2066,0.6355 h -0.9145 v -4.9835 h 0.9253 c 0.048,0.2137 0.084,0.4263 0.1785,0.6216 0.029,0.0468 0.052,0.0771 0.093,0.1094 0.1378,0.078 0.3144,0.0788 0.4657,0.0822 h 13.5032 v 0.9428 c -0.2172,0.0476 -0.4683,0.0819 -0.6631,0.2024 -0.027,0.0216 -0.048,0.0417 -0.07,0.0695 -0.076,0.1329 -0.077,0.3013 -0.081,0.4478 v 11.4676 c 0.01,0.1236 0.017,0.2664 0.097,0.3699 0.099,0.1001 0.2551,0.1398 0.385,0.1752 l 0.3291,0.0748 v 0.9408 z"
       style="fill:#ffffff;fill-rule:evenodd"
       id="path3796"
       inkscape:connector-curvature="0" />
  </g>
  <path
     d="m 119.079,79.4768 c 0,-0.4715 -0.0828,-0.8023 -0.2564,-0.9926 -0.1654,-0.1985 -0.4962,-0.3392 -0.976,-0.4384 v -0.6534 h 7.5845 v 0.6534 c -0.4715,0.0992 -0.7858,0.2399 -0.9512,0.4219 -0.1571,0.1901 -0.2398,0.5211 -0.2398,1.0091 v 17.2285 c 0,0.488 0.0827,0.8188 0.2398,1.009 0.1654,0.1819 0.4797,0.3226 0.9512,0.4218 v 0.6534 h -7.5845 v -0.6534 c 0.4798,-0.0992 0.8106,-0.2399 0.976,-0.4384 0.1736,-0.1901 0.2564,-0.5211 0.2564,-0.9924 z m -15.6733,0 c 0,-0.4715 -0.0827,-0.8023 -0.2563,-0.9926 -0.1655,-0.1985 -0.4963,-0.3392 -0.976,-0.4384 v -0.6534 h 7.5845 v 0.6534 c -0.4715,0.0992 -0.7858,0.2399 -0.9513,0.4219 -0.157,0.1901 -0.2398,0.5211 -0.2398,1.0091 v 17.2285 c 0,0.488 0.0828,0.8188 0.2398,1.009 0.1655,0.1819 0.4798,0.3226 0.9513,0.4218 v 0.6534 h -14.251 c -2.8452,0 -5.0453,-0.5459 -6.6167,-1.6377 -1.5634,-1.0918 -2.349,-2.6136 -2.349,-4.5655 0,-1.6294 0.5046,-2.9693 1.5052,-4.0198 1.0008,-1.0504 2.4731,-1.7947 4.4333,-2.2332 l -4.1686,-5.8144 c -0.339,-0.488 -0.7278,-0.9016 -1.1661,-1.2573 -0.4302,-0.3556 -1.0753,-0.7608 -1.9106,-1.2158 v -0.6534 h 8.9904 v 0.6286 c -0.3555,0.0662 -0.6285,0.1737 -0.8105,0.3143 -0.1901,0.1489 -0.2811,0.3225 -0.2811,0.5377 0,0.0496 0.0661,0.2068 0.1903,0.4796 0.1322,0.273 0.2728,0.5211 0.4135,0.728 l 4.2181,6.0377 h 5.4506 z m -5.9551,15.4336 h 5.9551 V 90.0471 H 97.252 c -1.8856,0 -3.2835,0.1985 -4.1933,0.6038 -0.9015,0.4052 -1.3564,1.0338 -1.3564,1.8858 0,0.8271 0.4466,1.4226 1.3316,1.803 0.8932,0.3805 2.3572,0.5707 4.4167,0.5707 z m -25.4,-13.4982 h -4.9213 c -2.4895,0 -4.3836,0.5706 -5.6821,1.7121 -1.2984,1.1331 -1.952,2.7955 -1.952,4.9791 0,2.2 0.6451,3.846 1.9272,4.9544 1.282,1.1083 3.1844,1.6624 5.7069,1.6624 h 4.9213 z m -4.6068,17.3773 c -4.5906,0 -7.9651,-0.8684 -10.1404,-2.6053 -2.1752,-1.737 -3.2588,-4.4333 -3.2588,-8.0808 0,-3.6475 1.0836,-6.3522 3.2588,-8.0973 2.1753,-1.7451 5.5498,-2.6137 10.1404,-2.6137 h 10.959 v 0.6534 c -0.4715,0.0992 -0.7858,0.2399 -0.9513,0.4219 -0.157,0.1901 -0.2398,0.5211 -0.2398,1.0091 v 17.2285 c 0,0.488 0.0828,0.8188 0.2398,1.009 0.1655,0.1819 0.4798,0.3226 0.9513,0.4218 v 0.6534 z m -39.3697,0 c -0.5293,0 -0.8768,0.0744 -1.0338,0.215 -0.149,0.149 -0.2813,0.455 -0.397,0.9265 h -0.6534 v -6.6582 h 0.6534 c 0.0992,0.4797 0.2397,0.8023 0.4217,0.9676 0.1903,0.1572 0.5211,0.24 1.0091,0.24 h 13.1096 v -4.2928 h -8.0395 c -0.521,0 -0.8601,0.0745 -1.0173,0.2317 -0.1653,0.1571 -0.2978,0.4714 -0.4135,0.9594 L 31.06,91.4034 v -6.1122 h 0.6534 c 0.0992,0.4715 0.2398,0.7858 0.4218,0.9511 0.1902,0.1573 0.521,0.24 1.009,0.24 h 8.0395 V 81.6602 H 27.5448 c -0.521,0 -0.8603,0.0745 -1.0173,0.2151 -0.1655,0.1489 -0.306,0.4715 -0.4383,0.976 h -0.6288 v -6.6912 h 0.6288 c 0.0992,0.4798 0.2398,0.8105 0.4383,0.9759 0.1902,0.1737 0.5293,0.2564 1.0173,0.2564 h 20.0324 v 0.6534 c -0.4798,0.0992 -0.8106,0.2399 -0.976,0.4384 -0.1738,0.1903 -0.2564,0.5211 -0.2564,0.9926 v 17.2285 c 0,0.4713 0.0826,0.8023 0.2564,0.9924 0.1654,0.1985 0.4962,0.3392 0.976,0.4384 v 0.6534 z"
     style="fill:#e74c3c;fill-rule:evenodd;fill-opacity:1"
     id="path3799"
     inkscape:connector-curvature="0" />
</svg>
